# xmcd
#
# Track frame offsets:
#	150
#	12162
#	24687
#	35707
#	46470
#	58960
#	73472
#	82227
#	93552
#	106325
#	118487
#	129952
#
# Disc length: 1871 seconds
#
# Revision: 2
# Processed by: cddbd v1.5.2PL0 Copyright (c) Steve Scherf et al.
# Submitted via: audiograbber 1.83.01
#
DISCID=b6074d0c
DTITLE=The Platters - 36 All-Time Greatest Hits - Disc 1 of 3
DYEAR=2001
DGENRE=Oldies
TTITLE0=Only You (And You Alone)
TTITLE1=My Prayer
TTITLE2=It Isn't Right
TTITLE3=He's Mine
TTITLE4=Twilight Time
TTITLE5=Harbor Lights
TTITLE6=Tammy
TTITLE7=Don't Blame Me
TTITLE8=Remember When
TTITLE9=Helpless
TTITLE10=It's Magic
TTITLE11=That Old Feeling
EXTD=3 CD Set 36 All-Time Greatest Hits Disc 1
EXTT0=
EXTT1=
EXTT2=
EXTT3=
EXTT4=
EXTT5=
EXTT6=
EXTT7=
EXTT8=
EXTT9=
EXTT10=
EXTT11=
PLAYORDER=
